<?xml version="1.0" ?>
<!-- Uploaded to: SVG Repo, www.svgrepo.com, Generator: SVG Repo Mixer Tools -->
<svg fill="#000000" width="800px" height="800px" viewBox="0 0 100 100" version="1.1" xml:space="preserve" xmlns="http://www.w3.org/2000/svg" xmlns:xlink="http://www.w3.org/1999/xlink">
<g id="backpack"/>
<g id="camping"/>
<g id="transportation"/>
<g id="navigation"/>
<g id="hotel"/>
<g id="money"/>
<g id="signpost"/>
<g id="ticket"/>
<g id="schedule"/>
<g id="beach"/>
<g id="mountain"/>
<g id="location"/>
<g id="traveling"/>
<g id="bonfire"/>
<g id="camera"/>
<g id="medicine"/>
<g id="drink"/>
<g id="canned_food"/>
<g id="nature"/>
<g id="map">
<g>
<path d="M93,4H7C5.3,4,4,5.3,4,7v86c0,1.7,1.3,3,3,3h86c1.7,0,3-1.3,3-3V7C96,5.3,94.7,4,93,4z M94,93c0,0.6-0.4,1-1,1H7    c-0.6,0-1-0.4-1-1V7c0-0.6,0.4-1,1-1h86c0.6,0,1,0.4,1,1V93z"/>
<path d="M90,9H10c-0.6,0-1,0.4-1,1v80c0,0.1,0,0.3,0.1,0.4c0.1,0.2,0.3,0.4,0.5,0.5C9.7,91,9.9,91,10,91h80c0.6,0,1-0.4,1-1V10    C91,9.4,90.6,9,90,9z M89,62.6L75.2,48.8c-0.4-0.4-1-0.4-1.4,0L63,59.6L47.4,44l14.1-14.1l9.8,9.8c0.4,0.4,1,0.4,1.4,0L89,23.4    V62.6z M81.6,11L72,20.6L62.4,11H81.6z M43.6,11l9,9L42,30.6L22.4,11H43.6z M19.6,11l21.7,21.7c0.2,0.2,0.5,0.3,0.7,0.3    s0.5-0.1,0.7-0.3l12-12c0.4-0.4,0.4-1,0-1.4L46.4,11h13.2l11.7,11.7c0.2,0.2,0.5,0.3,0.7,0.3s0.5-0.1,0.7-0.3L84.4,11H89v9.6    l-17,17l-9.8-9.8c-0.4-0.4-1-0.4-1.4,0L45.3,43.3c-0.4,0.4-0.4,1,0,1.4l17,17c0.4,0.4,1,0.4,1.4,0l10.8-10.8l14.3,14.3    c0.1,0.1,0.1,0.1,0.2,0.1v12.2L74.7,63.3c-0.4-0.4-1-0.4-1.4,0l-6,6c-0.4,0.4-0.4,1,0,1.4l3.8,3.8L56.6,89H42.4l14.8-14.8    c0.4-0.4,0.4-1,0-1.4l-21-21c-0.4-0.4-1-0.4-1.4,0L24.3,62.3c-0.4,0.4-0.4,1,0,1.4L37.6,77l-12,12H12.4l12.8-12.8    c0.4-0.4,0.4-1,0-1.4L11,60.6V50.4l5.3,5.3c0.2,0.2,0.5,0.3,0.7,0.3s0.5-0.1,0.7-0.3l16-16c0.4-0.4,0.4-1,0-1.4L11,15.6V11H19.6z     M28.4,89l11.3-11.3c0.4-0.4,0.4-1,0-1.4L26.4,63l9.1-9.1l19.6,19.6L39.6,89H28.4z M11,18.4L31.6,39L17,53.6l-6-6V18.4z M11,87.6    V63.4l12.1,12.1L11,87.6z M59.4,89l13.8-13.8c0.4-0.4,0.4-1,0-1.4L69.4,70l4.6-4.6l15,15V89H59.4z"/>
<path d="M62,37c-3.3,0-6,2.7-6,6.1c0,3.8,4.7,9,5.3,9.6c0.2,0.2,0.5,0.3,0.7,0.3s0.5-0.1,0.7-0.3c0.5-0.6,5.3-5.8,5.3-9.6    C68,39.7,65.3,37,62,37z M62,50.5c-1.6-1.8-4-5.2-4-7.4c0-2.3,1.8-4.1,4-4.1s4,1.8,4,4.1C66,45.3,63.5,48.6,62,50.5z"/>
</g>
</g>
</svg>