<?xml version="1.0" standalone="no"?>
<!DOCTYPE svg PUBLIC "-//W3C//DTD SVG 20010904//EN"
 "http://www.w3.org/TR/2001/REC-SVG-20010904/DTD/svg10.dtd">
<svg version="1.0" xmlns="http://www.w3.org/2000/svg"
 width="700.000000pt" height="700.000000pt" viewBox="0 0 700.000000 700.000000"
 preserveAspectRatio="xMidYMid meet">
<metadata>
Created by potrace 1.14, written by Peter Selinger 2001-2017
</metadata>
<g transform="translate(0.000000,700.000000) scale(0.100000,-0.100000)"
fill="#000000" stroke="none">
<path d="M3127 5443 c-2 -1 -302 -4 -667 -6 -366 -3 -674 -7 -685 -10 -72 -18
-113 -29 -130 -36 -135 -56 -204 -121 -265 -249 -47 -98 -44 -91 -100 -227
-65 -160 -168 -324 -254 -404 -14 -14 -26 -27 -26 -31 0 -3 16 -14 36 -23 101
-49 201 -147 277 -276 43 -72 109 -225 121 -282 3 -13 12 -51 20 -84 36 -145
53 -281 57 -452 1 -53 6 -83 13 -84 6 -1 896 -2 1978 -3 l1967 -2 -1 151 c-2
136 7 289 17 305 2 4 6 19 9 34 18 102 96 270 171 371 62 83 177 198 263 263
l73 55 -28 31 c-15 17 -30 33 -33 36 -3 3 -23 28 -43 57 -53 73 -97 173 -157
357 -29 87 -68 190 -87 227 -69 137 -186 217 -383 264 l-105 25 -1018 -3
c-560 -1 -1019 -3 -1020 -4z m-227 -172 c135 -45 239 -117 324 -226 91 -115
90 -102 11 -192 -38 -43 -74 -85 -81 -93 -14 -16 6 -39 148 -179 64 -62 66
-63 85 -45 11 11 54 50 97 89 86 76 170 161 194 197 9 13 19 25 23 28 11 8 29
58 29 82 0 11 -8 27 -17 34 -16 11 -7 24 97 127 l115 114 180 -181 c172 -173
341 -332 372 -349 28 -17 -19 -99 -83 -147 -57 -41 -131 -60 -223 -56 -119 5
-131 14 -156 116 -22 90 -46 138 -92 182 l-28 27 -61 -57 c-33 -31 -80 -75
-105 -96 -24 -22 -86 -78 -137 -125 -52 -47 -98 -87 -103 -89 -24 -9 -15 -19
287 -308 304 -291 288 -277 342 -279 69 -3 111 -14 172 -46 66 -35 80 -48 143
-118 l48 -54 -78 -75 c-43 -40 -108 -103 -144 -138 -37 -35 -72 -64 -78 -64
-19 0 -126 114 -154 164 -34 61 -48 112 -50 187 -2 57 -5 61 -47 100 -25 22
-106 98 -180 167 -249 235 -285 268 -330 309 l-44 41 -71 -61 c-91 -80 -473
-462 -505 -505 -14 -19 -35 -46 -46 -60 -39 -49 -76 -131 -72 -157 4 -19 -5
-34 -42 -69 l-48 -45 -15 22 c-9 12 -40 49 -71 82 -31 33 -56 64 -56 68 0 7
745 764 803 816 17 15 11 22 -100 128 l-118 113 -91 -94 -92 -94 -43 25 c-152
86 -283 248 -335 412 -18 56 -25 206 -12 266 22 109 24 113 81 123 90 17 283
7 357 -17z"/>
<path d="M750 4303 c-165 -42 -339 -221 -367 -378 -23 -125 25 -272 138 -421
28 -38 54 -71 58 -74 3 -3 23 -24 44 -46 l37 -40 -31 -130 c-59 -249 -63 -284
-63 -549 0 -227 8 -272 64 -390 73 -151 181 -250 340 -312 42 -16 190 -18
2495 -20 2709 -2 2534 -6 2671 63 211 106 316 329 318 674 1 215 -23 400 -80
621 -19 75 -19 75 17 89 45 19 121 100 157 169 94 174 93 418 -1 560 -126 190
-402 252 -602 136 -179 -104 -308 -393 -341 -765 -4 -41 -8 -86 -10 -100 -1
-14 -2 -74 -3 -133 l-1 -108 -1202 6 c-662 3 -1596 7 -2076 9 -480 2 -875 6
-877 8 -1 1 -6 46 -9 98 -4 52 -9 109 -11 125 -2 17 -6 53 -10 80 -11 97 -16
129 -36 223 -71 327 -209 534 -398 597 -65 21 -157 24 -221 8z"/>
<path d="M1348 1778 c-4 -11 -3 -116 1 -154 1 -12 64 -41 135 -64 48 -15 201
-20 264 -8 26 4 59 11 75 13 15 3 55 16 90 29 l62 23 2 86 2 87 -314 0 c-241
0 -314 -3 -317 -12z"/>
<path d="M5050 1698 c0 -72 2 -79 23 -87 12 -5 36 -15 52 -22 79 -34 161 -47
270 -44 132 3 141 5 249 54 49 23 54 35 46 121 l-5 55 -317 1 -318 0 0 -78z"/>
</g>
</svg>
